<?xml version="1.0" standalone="no"?>
<!DOCTYPE svg PUBLIC "-//W3C//DTD SVG 20010904//EN"
 "http://www.w3.org/TR/2001/REC-SVG-20010904/DTD/svg10.dtd">
<svg version="1.0" xmlns="http://www.w3.org/2000/svg"
 width="260.000000pt" height="260.000000pt" viewBox="0 0 260.000000 260.000000"
 preserveAspectRatio="xMidYMid meet">
<metadata>
Created by potrace 1.14, written by Peter Selinger 2001-2017
</metadata>
<g transform="translate(0.000000,260.000000) scale(0.100000,-0.100000)"
fill="#000000" stroke="none">
<path d="M102 1988 c-5 -7 -12 -22 -16 -34 -4 -12 -8 -417 -10 -900 -4 -963
-6 -926 56 -964 51 -31 104 -26 184 16 l68 37 76 -12 c59 -9 116 -8 265 3 105
8 249 18 320 21 172 8 501 42 595 61 79 16 101 28 85 43 -13 12 -154 56 -225
70 -74 15 -115 42 -140 92 -24 46 -67 108 -106 154 -14 17 -36 46 -48 65 -12
19 -27 35 -33 35 -7 0 -18 6 -24 13 -21 20 -77 14 -130 -17 -51 -29 -88 -31
-109 -6 -15 17 11 79 38 94 11 6 30 28 43 48 12 21 45 62 72 91 47 51 49 55
43 95 -9 58 -44 108 -146 207 -129 127 -617 636 -680 709 -54 64 -97 91 -143
91 -14 0 -29 -6 -35 -12z"/>
</g>
</svg>
